<?xml version="1.0" encoding="utf-8"?>
<!-- Generator: Adobe Illustrator 19.1.0, SVG Export Plug-In . SVG Version: 6.00 Build 0)  -->
<svg version="1.1" id="Layer_1" xmlns="http://www.w3.org/2000/svg" xmlns:xlink="http://www.w3.org/1999/xlink" x="0px" y="0px"
	 viewBox="0 0 500 200" style="enable-background:new 0 0 500 200;" xml:space="preserve">
<style type="text/css">
	.st0{fill:#EF5023;}
</style>
<g>
	<path class="st0" d="M8.1,51c2.2-0.3,4.2-0.6,6.2-0.7c3.4-0.1,5.2,1.4,6.1,5.1c2.4,10.2,5.2,20.3,8,30.4c0.4,1.6,1.6,2.9,2.9,5.1
		c4.2-13.1,8-25.1,11.9-37c1.6-4.9,5.9-6.7,10.5-4.2c1.1,0.6,1.9,2.6,1.9,3.9c0.4,20.5,0.8,40.9,0.9,61.4c0,10.2-0.8,20.4-0.8,30.7
		c0,6-4.3,4.9-7.7,5.3c-4.3,0.5-3.8-2.7-3.7-5.4c0.4-13.6,0.8-27.1,1.2-40.7c0.3-7.6,0.7-15.2,1-22.8c-0.6-0.1-1.2-0.2-1.8-0.3
		c-0.5,1.3-1,2.5-1.4,3.8c-2.9,9.3-5.8,18.7-8.8,27.9c-0.4,1.2-1.9,3.2-2.4,3.1c-1.5-0.4-3.6-1.4-4.1-2.7
		c-3.8-9.7-7.3-19.6-10.8-29.4c-0.4-1.1-0.7-2.2-1.8-3.3c0,1.3,0,2.7,0,4c0,20-0.2,39.9,0,59.9c0,4.2-1.2,6.2-5.5,6.2
		c-4.3,0-5.2-2.2-5.1-6c0.3-25.3,0.2-50.6,0.7-75.9C5.3,63.3,7,57.4,8.1,51z"/>
	<path class="st0" d="M322,94.9c0.8-1.9,1.6-3.7,2.3-5.6c3.7-10.8,7.2-21.8,11.1-32.5c1.9-5.4,4.5-6,12.1-3.8
		c0,14.5,0.4,29.1-0.1,43.6c-0.5,16-2,32-2.8,48c-0.2,3.5-0.1,6-5,5.9c-5-0.1-5.3-2.6-5.2-6.4c0.6-20.2,1.1-40.4,1.7-60.8
		c-3.2,9.9-6.2,19.7-9.6,29.4c-0.6,1.7-2.3,3.5-3.9,4.1c-2.9,1-4.6-1.1-5.4-3.8c-3-9.4-6-18.9-9-28c0,9.5,0,19.6,0,29.7
		c0,9.4,0.1,18.7,0,28.1c-0.1,8-3.1,9.9-11.1,6.9c0-11.4,0-23,0-34.5c0-10.1-0.1-20.2,0.4-30.2c0.4-9.3,1.6-18.5,2.4-27.8
		c0.4-4.3,3.3-4.8,6.7-5.1c3.6-0.4,5.2,1.2,5.9,4.5c2.3,11.1,4.7,22.1,7.1,33.1c0.4,1.6,0.8,3.2,1.1,4.9
		C321,94.6,321.5,94.7,322,94.9z"/>
	<path class="st0" d="M244,117.2c0,9.8-0.2,19.2,0.1,28.6c0.2,4.6-2,5.2-5.7,5.3c-4.2,0.2-5.1-1.6-5-5.3c0.5-29.8,0.9-59.7,1.3-89.5
		c0-4.2,1.8-6.3,5.9-6.2c4.8,0.2,9.7,0.3,14.5,0.9c4.8,0.6,7.4,4,8,8.5c2,13.7,2.1,27.4-2.4,40.7c-1.4,4.1-4.4,7.6-6.8,11.7
		c0.3,0.2,1.2,1.1,2.2,1.4c4.5,1.3,6.7,4.6,7.1,8.8c0.6,8.5,0.7,17,1,25.6c0.1,3.8-2.8,3-5,3.2c-2.6,0.2-4.5-0.2-4.5-3.6
		c0-6-0.4-12-0.7-18.1C253.3,122,251.8,120,244,117.2z M244.6,57.5c0,15.9,0,31.4,0,46.9c0.6,0.2,1.3,0.4,1.9,0.6c1.8-3,4-5.8,5.3-9
		c4.4-10.6,2.7-21.7,1.5-32.6C252.8,58.7,249.6,56.4,244.6,57.5z"/>
	<path class="st0" d="M396,90.4c0-11.6,0.1-23.1-0.1-34.7c-0.1-4.3,1.2-6.4,5.8-5.5c5.5,1.1,11.3,1.5,16.5,3.5c2.8,1,5.8,4.2,6.8,7
		c1.9,5.8,3.1,11.9,3.3,18c0.7,15.4,0.9,30.8,0.8,46.2c0,5.2-0.6,10.7-2.6,15.5c-3.8,9.5-7.5,11.2-17.6,10.1c-1-0.1-2-0.3-3-0.4
		c-9.4-0.5-9.4-0.5-9.4-10.1c0-16.6,0-33.1,0-49.7C396.4,90.4,396.2,90.4,396,90.4z M406.1,60.5c0,6.5,0,12.7,0,18.8
		c0.1,19.4,0.1,38.9,0.3,58.3c0,1.7,0.6,4.6,1.4,4.8c1.9,0.4,5,0.2,6-1c2.5-3.3,5.7-7.2,5.8-11c0.6-19.1,0.5-38.2,0.2-57.3
		C419.7,63.8,415.9,60.7,406.1,60.5z"/>
	<path class="st0" d="M466.4,120.5c-0.6,4.6-1.2,9.3-1.8,14.1c-0.4,3.7-0.9,7.3-1,11c-0.1,3.6-1.8,5-5.2,5.3c-4,0.4-5.3-0.8-4.8-5
		c1.8-15.3,2.9-30.7,4.7-45.9c1.8-15.1,4.1-30,6.2-45.1c0.5-3.3,2.2-4.8,5.7-4.9c9.4-0.2,11.1,0.9,12.6,10.1
		c3.1,19.9,6,39.9,9.1,59.8c1.4,8.9,2.9,17.7,4,26.6c0.2,1.3-1.3,4-2.3,4.1c-2.5,0.4-6.1,1.5-6.8-2.8c-0.6-3.5-0.7-7-1.2-10.5
		c-0.7-4.6-1.4-9.2-2.6-13.6c-0.4-1.3-2.5-2.9-4-3.1C475.1,120.2,471.1,120.5,466.4,120.5z M482.1,113.2c-2.7-17.3-5.3-34-7.9-50.6
		c-0.8,0-1.6,0.1-2.5,0.1c-1.4,16.3-2.8,32.6-4.3,49.6C471.7,112.6,476.3,112.9,482.1,113.2z"/>
	<path class="st0" d="M389.2,149c-10.6,0-21.2,0.1-31.9-0.2c-1.3,0-3.6-2.8-3.6-4.2c0.2-10.1,1.1-20.2,1.4-30.4
		c0.1-4.8-0.8-9.7-1.1-14.6c-0.2-4.5-0.2-9-0.3-13.6c-0.1-8.7-0.3-17.4-0.1-26.2c0.1-7.3,2.1-9,9.3-9c7.2,0,14.4,0.1,21.6,0
		c3.3,0,5.5,0.7,5.5,4.7c0,4-1.6,5.8-5.7,5.7c-6.2-0.2-12.4,0-18.8,0c0,14.5,0,28.6,0,43.2c3.7,0,6.7,0,9.6,0c8.4,0,8.5,0.2,7.5,9.1
		c-5.5,0-11.1,0-17.2,0c0,8.8,0,17.1,0,26.1c5.7,0,11.4,0,17,0C390.2,139.7,390.9,140.5,389.2,149z"/>
	<path class="st0" d="M75.8,139.6c6,0,11.5,0,17,0c7.8,0,8.5,1,6.7,9.2c-11.1,0-22.2,0-33.9,0c-0.2-2.5-0.5-4.8-0.5-7
		c0-28,0-56,0.2-84c0-6.5,0.5-6.8,6.9-6.8c7.4,0,14.8,0.1,22.1,0c3.3,0,5.8,0.3,5.8,4.8c0,4.6-2,5.7-6.1,5.6c-6-0.2-12-0.1-18.3-0.1
		c0,14.5,0,28.4,0,43.1c3.6,0,7,0,10.5,0c7.5,0,8.3,1.1,6.7,9.2c-5.5,0-11.1,0-17.1,0C75.8,122.4,75.8,130.6,75.8,139.6z"/>
	<path class="st0" d="M203.8,104.5c5.8,0,10.1,0.1,14.4,0c4.2-0.2,3.9,2.9,4.1,5.4c0.2,2.9-1.1,4.2-4.2,4c-4.3-0.2-8.6-0.1-13.4-0.1
		c0,8.6,0,16.7,0,25.8c5.6,0,11.3,0,16.9,0c8,0,8.3,0.5,6.6,9.2c-11.1,0-22.2,0-33.9,0c-0.1-2.3-0.4-4.5-0.4-6.6
		c0-26.8,0-53.7,0-80.5c0-10.8,0.1-10.9,10.6-10.8c6.5,0,13.1,0.2,19.6,0c3.5-0.1,4.8,1.4,4.7,4.8c-0.1,3.2-0.5,5.6-4.6,5.5
		c-5.5-0.1-11.1,0.2-16.6,0c-3.1-0.1-4.1,1.1-4.1,4.1C203.9,78.2,203.8,90.9,203.8,104.5z"/>
	<path class="st0" d="M165.1,60.1c-5.8,0-10.8,0-15.6,0c-2.1-7.8-1.9-8,5.3-8c11.4,0,22.8,0,34.1,0c2.2,6.7,1.7,7.5-4.6,7.5
		c-2.1,0-4.3,0-7.2,0c0,7.3,0.2,14.1,0,21c-0.7,22.7-1.6,45.4-2.5,68c0,1-0.3,1.9-0.5,3.2c-2.9,0-5.7,0-9,0
		C165.1,121.3,165.1,91.1,165.1,60.1z"/>
	<path class="st0" d="M121,60.3c-4.7,0-8.7-0.1-12.7,0c-3.4,0.1-3.7-1.9-3.8-4.5c-0.1-2.9,1.2-3.8,3.9-3.8c11.2,0.1,22.5,0,33.7-0.1
		c2.8,0,3.9,1.1,4,3.8c0.1,2.8-1,4-3.8,3.9c-3.2-0.1-6.3,0-10.3,0c0,3.2,0,6,0,8.8c-0.4,26.2-0.8,52.3-1,78.5c0,4.8-2.3,5.3-6.3,5.3
		c-4.2,0-3.9-2.3-3.9-5.2c0.1-23.7,0.1-47.3,0.1-71C121,71,121,66,121,60.3z"/>
	<path class="st0" d="M446.7,152.1c-1.6,0-3.1-0.1-4.6,0c-3.5,0.2-5.2-1.1-5.1-4.9c0.2-16.3,0.1-32.6,0.2-48.9
		c0-13.1,0.1-26.2,0.2-39.3c0-2.2,0.2-4.3,0.4-6.8c2-0.1,3.6-0.1,5.3-0.3c3.1-0.2,4.1,1.2,4.1,4.2c0,31.2,0.1,62.5,0.1,93.7
		C447.3,150.3,447.1,150.8,446.7,152.1z"/>
	<path class="st0" d="M285.2,107.8c-0.1,4-0.5,7.2-5.4,7c-4.3-0.1-6-2.4-6-6.4c0.1-4.6,2.3-7.1,6-7
		C284.2,101.7,285.8,104,285.2,107.8z"/>
</g>
</svg>
